# xmcd
#
# Track frame offsets: 
#        150
#        17858
#        35385
#        52897
#        77468
#        93952
#        108782
#        124800
#        141257
#        160128
#        180571
#
# Disc length: 2585 seconds
#
# Revision: 0
# Processed by: cddbd v1.5.2PL0 Copyright (c) Steve Scherf et al.
# Submitted via: ExactAudioCopy v0.99pb3
#
DISCID=7e0a170b
DTITLE=Andy Hersey - Between God and Country
DYEAR=2007
DGENRE=Country
TTITLE0=Roughshod Range
TTITLE1=Man I Am Today
TTITLE2=Mexican Moonshine
TTITLE3=Between God and Country
TTITLE4=Brand New Memory
TTITLE5=He's the Reason
TTITLE6=Burnin' Georgia Down
TTITLE7=Tears On the Floor
TTITLE8=It's Not Okay
TTITLE9=All the More Reason
TTITLE10=Smile and Wave
EXTD=
EXTT0=
EXTT1=
EXTT2=
EXTT3=
EXTT4=
EXTT5=
EXTT6=
EXTT7=
EXTT8=
EXTT9=
EXTT10=
PLAYORDER=
